<?xml version="1.0" encoding="utf-8"?>
<!-- Generator: Adobe Illustrator 28.0.0, SVG Export Plug-In . SVG Version: 6.00 Build 0)  -->
<svg version="1.1" id="LOGO" xmlns="http://www.w3.org/2000/svg" xmlns:xlink="http://www.w3.org/1999/xlink" x="0px" y="0px"
	 viewBox="0 0 286.6 47.7" style="enable-background:new 0 0 286.6 47.7;" xml:space="preserve">
<style type="text/css">
	.st0{fill-rule:evenodd;clip-rule:evenodd;fill:#E30613;}
	.st1{fill:none;}
	.st2{fill:#5A5A59;}
</style>
<g>
	<g>
		<g>
			<path class="st0" d="M6.6,24.1C6.6,12.8,15.1,3.5,26,2.2c-0.8-0.1-1.7-0.2-2.5-0.2c-12.2,0-22,9.8-22,22c0,12,9.8,21.9,22,21.9
				c0.9,0,1.7-0.1,2.5-0.2C15.1,44.5,6.6,35.2,6.6,24.1z M16.4,24.1c0-6.8,5-12.4,11.4-13.4c-0.7-0.1-1.2-0.2-1.9-0.2
				c-7.5,0-13.6,6.1-13.6,13.6c0,7.4,6.1,13.4,13.6,13.4c0.7,0,1.2-0.1,1.9-0.2C21.5,36.4,16.4,30.7,16.4,24.1z M24.4,24.1
				c0-2.8,2-5.2,4.5-5.8c-0.4-0.1-0.8-0.1-1.2-0.1c-3.1,0-5.7,2.6-5.7,5.9c0,3.2,2.6,5.7,5.7,5.7c0.4,0,0.8,0,1.2-0.1
				C26.4,29.1,24.4,26.9,24.4,24.1z"/>
		</g>
	</g>
	<path class="st1" d="M283.6,23.1L283.6,23.1"/>
	<g>
		<g>
			<path class="st2" d="M221.1,20c0-3.1-2.3-5.8-6.2-5.8h-8.5c-0.5,0-0.9,0.4-0.9,0.9v19.4h1.8v-8.7h7.5l5.5,8.7h2.1l-5.6-8.9
				C219.6,24.9,221.1,22.6,221.1,20z M207.3,24.1v-8.3h7.7c2.4,0,4.4,1.6,4.4,4.2c0,2.6-2,4.2-4.4,4.2H207.3z M101.3,23
				c1.2-1.1,2-2.5,2-4c0-3.6-2.7-5.5-7.1-5.5h-6.6c-1.3,0-2.3,1-2.3,2.3v15.7c0,1.3,1,2.3,2.3,2.3h8.1c3.9,0,7-2.5,7-6.1
				C104.6,25.7,103.3,24,101.3,23z M91.9,17.2h4.3c1.5,0,2.5,1,2.5,2.3c0,1.3-0.7,2.3-2.7,2.3h-4V17.2z M97.4,30.2h-5.5v-4.8h5.5
				c1.5,0,2.6,0.9,2.6,2.4C99.9,29.2,98.8,30.2,97.4,30.2z M278.8,14.1h-8.3c-0.5,0-0.9,0.4-0.9,0.9v19.4h1.8v-8.6h7.4
				c3.9,0,6.2-2.7,6.2-5.9C285,16.9,282.8,14.1,278.8,14.1z M278.9,24.3h-7.4v-8.6h7.4c2.3,0,4.3,1.7,4.3,4.3
				C283.2,22.6,281.2,24.3,278.9,24.3z M48.9,17.3c1.4,0,3.1,0.3,4.3,0.7l1-3.8c-1.6-0.6-3.7-1-5.9-1c-6.8,0-11.4,4.4-11.4,10.5
				c0,6.1,4.7,10.5,11.4,10.5c2.3,0,4.3-0.4,5.8-1.1l-0.9-3.7c-1.2,0.4-2.9,0.7-4.3,0.7c-5,0-7.3-3-7.3-6.4
				C41.6,20.2,43.9,17.3,48.9,17.3z M76.8,13.5h-6l-8.3,7.9v-7.9h-4.6v20.3h4.6v-8.3l8.7,8.3h6.1L66.3,23.4L76.8,13.5z M108,33.9
				h4.6V13.5H108V33.9z M200.2,30.7c-1.6,1.6-3.9,2.5-6.4,2.5c-4.9,0-8.9-3.4-8.9-8.8c0-5.5,3.9-8.8,9.2-8.8c1.9,0,4.2,0.4,6.2,1.2
				l0.5-1.5c-1.9-0.9-4.4-1.4-6.8-1.4c-6.3,0-10.9,4.1-10.9,10.5c0,6.3,4.8,10.5,10.7,10.5c3.5,0,6.5-1.4,8.2-3.7v-5.4h-1.8V30.7z
				 M234.2,13.8c-5.9,0-10.2,4.5-10.2,10.5c0,5.9,4.3,10.5,10.2,10.5c5.9,0,10.2-4.5,10.2-10.5C244.4,18.4,240.1,13.8,234.2,13.8z
				 M234.2,33.2c-4.8,0-8.3-3.7-8.3-8.9c0-5.2,3.5-8.8,8.3-8.8c4.8,0,8.3,3.7,8.3,8.8C242.5,29.5,239,33.2,234.2,33.2z M135.2,20.1
				c0-3.6-2.8-6.5-6.7-6.5h-9.2c-1.2,0-2.3,1-2.3,2.3v18h4.6v-7.3h5l4.2,7.3h5.2l-4.6-8C133.7,24.9,135.2,22.7,135.2,20.1z
				 M127.6,23h-5.9v-5.8h5.9c1.6,0,2.9,1.1,2.9,2.8C130.5,21.8,129.2,23,127.6,23z M164.5,13.3c-0.8,0-1.6,0.5-1.9,1.3l-7.9,19.3
				h4.5l1.6-4.1h7.4l1.6,4.1h4.5l-7.9-19.3C166.1,13.8,165.3,13.3,164.5,13.3z M162.1,26.2l2.4-6.4l2.4,6.4H162.1z M262.4,27.2
				c0,3.4-2.3,6-6.1,6s-6.1-2.5-6.1-6V14.1h-1.8v13c0,4,2.7,7.7,8,7.7c5.2,0,8-3.7,8-7.7v-13h-1.8V27.2z M143.6,13.5h-4.5v18
				c0,1.3,1,2.3,2.3,2.3h10.9v-3.9h-8.6V13.5z"/>
		</g>
	</g>
</g>
</svg>
